<svg aria-hidden="true" style="position:absolute;width:0;height:0;overflow:hidden" xmlns="http://www.w3.org/2000/svg">
  <defs>
    <symbol id="icon-header-book" viewBox="0 0 37 32">
      <path d="M33.83 3.661c-3.419.194-10.214.901-14.409 3.474a.959.959 0 0 0-.454.823V30.7c0 .722.788 1.178 1.453.843 4.315-2.176 10.558-2.77 13.645-2.932 1.054-.056 1.873-.902 1.873-1.916V5.58c0-1.106-.957-1.984-2.107-1.918zM16.517 7.135C12.322 4.562 5.526 3.855 2.108 3.661.957 3.596 0 4.473 0 5.579v21.116c0 1.015.819 1.861 1.873 1.916 3.088.162 9.333.756 13.65 2.934.662.335 1.447-.122 1.447-.841V7.939c0-.34-.18-.637-.449-.803l-.004-.002z"/>
    </symbol>
  </defs>
</svg>
